<svg xmlns="http://www.w3.org/2000/svg" viewBox="0 -0.5 64 64" shape-rendering="crispEdges">
<metadata>Made with Pixels to Svg https://codepen.io/shshaw/pen/XbxvNj</metadata>
<path stroke="#000000" d="M24 6h2M24 7h2M22 8h2M26 8h2M42 8h2M22 9h2M26 9h2M42 9h2M22 10h2M28 10h2M36 10h2M42 10h2M22 11h2M28 11h2M36 11h2M42 11h2M20 12h2M28 12h2M36 12h2M44 12h2M20 13h2M28 13h2M36 13h2M44 13h2M20 14h2M30 14h2M34 14h2M44 14h2M20 15h2M30 15h2M34 15h2M44 15h2M18 16h2M30 16h6M46 16h2M18 17h2M30 17h6M46 17h2M22 18h6M38 18h6M46 18h2M22 19h6M38 19h6M46 19h2M18 20h2M28 20h2M32 20h2M36 20h2M46 20h2M18 21h2M28 21h2M32 21h2M36 21h2M46 21h2M18 22h2M24 22h2M30 22h4M40 22h2M46 22h2M18 23h2M24 23h2M30 23h4M40 23h2M46 23h2M18 24h6M28 24h2M34 24h2M42 24h6M18 25h6M28 25h2M34 25h2M42 25h6M18 26h2M28 26h2M34 26h2M46 26h2M18 27h2M28 27h2M34 27h2M46 27h2M18 28h2M28 28h2M34 28h2M46 28h2M18 29h2M28 29h2M34 29h2M46 29h2M20 30h2M28 30h2M34 30h2M44 30h2M20 31h2M28 31h2M34 31h2M44 31h2M22 32h2M30 32h4M42 32h2M22 33h2M30 33h4M42 33h2M24 34h6M36 34h6M24 35h6M36 35h6M28 36h2M36 36h2M28 37h2M36 37h2M26 38h2M38 38h2M26 39h2M38 39h2M24 40h2M40 40h2M24 41h2M40 41h2M22 42h2M42 42h2M22 43h2M42 43h2M16 44h4M22 44h2M42 44h2M46 44h4M16 45h4M22 45h2M42 45h2M46 45h4M14 46h2M20 46h4M32 46h2M44 46h2M50 46h2M14 47h2M20 47h4M32 47h2M44 47h2M50 47h2M12 48h2M22 48h4M32 48h2M40 48h4M52 48h2M12 49h2M22 49h4M32 49h2M40 49h4M52 49h2M12 50h2M24 50h2M32 50h2M40 50h2M52 50h2M12 51h2M24 51h2M32 51h2M40 51h2M52 51h2M12 52h6M24 52h2M32 52h2M40 52h2M48 52h14M12 53h6M24 53h2M32 53h2M40 53h2M48 53h14M10 54h4M24 54h2M30 54h6M40 54h2M52 54h2M62 54h2M10 55h4M24 55h2M30 55h6M40 55h2M52 55h2M62 55h2M10 56h22M34 56h28M10 57h22M34 57h28" />
<path stroke="#010000" d="M40 6h2M40 7h2M38 8h2M38 9h2" />
<path stroke="#ffffff" d="M24 8h2M40 8h2M24 9h2M40 9h2M24 10h4M38 10h4M24 11h4M38 11h4M22 12h6M38 12h6M22 13h6M38 13h6M22 14h8M36 14h8M22 15h8M36 15h8M20 16h10M36 16h10M20 17h10M36 17h10M20 18h2M28 18h10M44 18h2M20 19h2M28 19h10M44 19h2M20 20h8M30 20h2M34 20h2M38 20h8M20 21h8M30 21h2M34 21h2M38 21h8M20 22h2M26 22h4M34 22h6M42 22h4M20 23h2M26 23h4M34 23h6M42 23h4M24 24h4M30 24h4M36 24h6M24 25h4M30 25h4M36 25h6M20 26h8M30 26h4M36 26h10M20 27h8M30 27h4M36 27h10M20 28h8M30 28h4M36 28h10M20 29h8M30 29h4M36 29h10M22 30h6M30 30h4M36 30h8M22 31h6M30 31h4M36 31h8M24 32h4M34 32h8M24 33h4M34 33h8M30 34h6M30 35h6M30 36h6M30 37h6M28 38h10M28 39h10M26 40h14M26 41h14M24 42h18M24 43h18M24 44h18M24 45h18M16 46h4M24 46h8M34 46h8M46 46h4M16 47h4M24 47h8M34 47h8M46 47h4M14 48h8M26 48h6M36 48h4M44 48h8M14 49h8M26 49h6M36 49h4M44 49h8M14 50h10M26 50h6M34 50h6M42 50h10M14 51h10M26 51h6M34 51h6M42 51h10M18 52h6M26 52h6M34 52h6M42 52h6M18 53h6M26 53h6M34 53h6M42 53h6M14 54h10M26 54h4M36 54h2M42 54h10M54 54h8M14 55h10M26 55h4M36 55h2M42 55h10M54 55h8" />
<path stroke="#000001" d="M18 18h2M18 19h2" />
<path stroke="#fffdff" d="M22 22h2M22 23h2" />
<path stroke="#fffffe" d="M28 32h2M28 33h2" />
<path stroke="#000002" d="M42 46h2M42 47h2" />
<path stroke="#fffffd" d="M34 48h2M34 49h2" />
<path stroke="#fdffff" d="M38 54h2M38 55h2" />
</svg>